<svg width="148" height="24" viewBox="0 0 148 24" fill="none" xmlns="http://www.w3.org/2000/svg">
    <g clip-path="url(#clip0_11541_5045)">
        <path
            d="M53.8149 4.56055C52.5958 4.55988 51.3972 4.87328 50.3344 5.47052C49.2717 6.06776 48.3807 6.92871 47.7474 7.97037C47.1142 9.01202 46.7599 10.1993 46.7188 11.4176C46.6777 12.636 46.9512 13.8444 47.5129 14.9264C48.0745 16.0083 48.9055 16.9273 49.9256 17.5948C50.9456 18.2623 52.1205 18.6557 53.3368 18.7372C54.5531 18.8187 55.77 18.5854 56.8699 18.0599C57.9699 17.5344 58.916 16.7344 59.6169 15.737L57.3619 13.4744C56.9874 14.2015 56.3983 14.7957 55.6746 15.1766C54.9508 15.5574 54.1274 15.7064 53.3161 15.6034C52.5048 15.5003 51.7448 15.1502 51.1392 14.6005C50.5337 14.0508 50.1119 13.3282 49.931 12.5306H60.858C60.8967 12.2383 60.9161 11.9437 60.9163 11.6488C60.9141 9.76729 60.1649 7.9636 58.8332 6.63437C57.5015 5.30514 55.6964 4.55919 53.8149 4.56055ZM53.8149 7.67077C54.6674 7.67254 55.497 7.94719 56.1822 8.4545C56.8673 8.96182 57.3721 9.67515 57.6226 10.4901H50.0072C50.2568 9.67464 50.7614 8.96076 51.4467 8.45331C52.1321 7.94585 52.9621 7.67157 53.8149 7.67077Z"
            fill="#1D8AF5" />
        <path
            d="M26.7627 10.8693H8.19699C7.78597 10.8525 7.39736 10.6774 7.11248 10.3807C6.8276 10.0839 6.66852 9.68847 6.66852 9.27711C6.66852 8.86574 6.8276 8.47032 7.11248 8.17356C7.39736 7.8768 7.78597 7.70171 8.19699 7.68492H26.7627C26.9773 7.67616 27.1914 7.71085 27.3922 7.78691C27.593 7.86298 27.7764 7.97885 27.9313 8.12756C28.0862 8.27627 28.2095 8.45476 28.2937 8.6523C28.3779 8.84985 28.4213 9.06237 28.4213 9.27711C28.4213 9.49185 28.3779 9.70437 28.2937 9.90192C28.2095 10.0995 28.0862 10.2779 27.9313 10.4267C27.7764 10.5754 27.593 10.6912 27.3922 10.7673C27.1914 10.8434 26.9773 10.8781 26.7627 10.8693Z"
            fill="#1D8AF5" />
        <path
            d="M47.9289 1.72136H22.8003C22.5762 1.69646 22.3494 1.71911 22.1346 1.78783C21.9198 1.85656 21.722 1.96981 21.554 2.12019C21.386 2.27058 21.2515 2.45471 21.1595 2.66057C21.0675 2.86643 21.0199 3.08938 21.0199 3.31487C21.0199 3.54036 21.0675 3.76332 21.1595 3.96918C21.2515 4.17504 21.386 4.35917 21.554 4.50955C21.722 4.65994 21.9198 4.77319 22.1346 4.84192C22.3494 4.91064 22.5762 4.93329 22.8003 4.90839H40.5862V7.68683H33.2573C33.0427 7.67806 32.8286 7.71276 32.6278 7.78882C32.427 7.86489 32.2436 7.98075 32.0887 8.12947C31.9338 8.27818 31.8105 8.45667 31.7263 8.65421C31.6421 8.85176 31.5987 9.06428 31.5987 9.27902C31.5987 9.49376 31.6421 9.70628 31.7263 9.90383C31.8105 10.1014 31.9338 10.2799 32.0887 10.4286C32.2436 10.5773 32.427 10.6932 32.6278 10.7692C32.8286 10.8453 33.0427 10.88 33.2573 10.8712H40.586V16.6814C40.6296 17.0736 40.8162 17.4359 41.1102 17.699C41.4042 17.9622 41.785 18.1077 42.1795 18.1077C42.5741 18.1077 42.9548 17.9622 43.2488 17.699C43.5428 17.4359 43.7295 17.0736 43.773 16.6814V4.90778H47.9295C48.1536 4.93268 48.3804 4.91003 48.5952 4.8413C48.8099 4.77258 49.0078 4.65933 49.1758 4.50894C49.3438 4.35856 49.4782 4.17442 49.5703 3.96856C49.6623 3.7627 49.7099 3.53975 49.7099 3.31426C49.7099 3.08877 49.6623 2.86582 49.5703 2.65996C49.4782 2.4541 49.3438 2.26996 49.1758 2.11958C49.0078 1.9692 48.8099 1.85594 48.5952 1.78722C48.3804 1.71849 48.1536 1.69584 47.9295 1.72074"
            fill="#1D8AF5" />
        <path
            d="M33.7705 18.233H26.6522C26.4281 18.2579 26.2013 18.2352 25.9865 18.1665C25.7717 18.0978 25.5739 17.9845 25.4059 17.8341C25.2378 17.6838 25.1034 17.4996 25.0114 17.2938C24.9194 17.0879 24.8718 16.8649 24.8718 16.6395C24.8718 16.414 24.9194 16.191 25.0114 15.9852C25.1034 15.7793 25.2378 15.5952 25.4059 15.4448C25.5739 15.2944 25.7717 15.1811 25.9865 15.1124C26.2013 15.0437 26.4281 15.021 26.6522 15.0459H33.7705C34.1627 15.0895 34.525 15.2762 34.7882 15.5702C35.0513 15.8642 35.1968 16.2449 35.1968 16.6395C35.1968 17.034 35.0513 17.4147 34.7882 17.7087C34.525 18.0028 34.1627 18.1894 33.7705 18.233Z"
            fill="#1D8AF5" />
        <path
            d="M2.80219 10.8693H1.64975C1.43519 10.8781 1.22108 10.8434 1.02026 10.7673C0.819443 10.6912 0.636072 10.5754 0.481161 10.4267C0.32625 10.2779 0.202994 10.0995 0.118796 9.90192C0.034598 9.70437 -0.00880432 9.49185 -0.00880432 9.27711C-0.00880432 9.06237 0.034598 8.84985 0.118796 8.6523C0.202994 8.45476 0.32625 8.27627 0.481161 8.12756C0.636072 7.97885 0.819443 7.86298 1.02026 7.78691C1.22108 7.71085 1.43519 7.67616 1.64975 7.68492H2.81016C3.02472 7.67616 3.23884 7.71085 3.43966 7.78691C3.64047 7.86298 3.82384 7.97885 3.97875 8.12756C4.13367 8.27627 4.25692 8.45476 4.34112 8.6523C4.42532 8.84985 4.46872 9.06237 4.46872 9.27711C4.46872 9.49185 4.42532 9.70437 4.34112 9.90192C4.25692 10.0995 4.13367 10.2779 3.97875 10.4267C3.82384 10.5754 3.64047 10.6912 3.43966 10.7673C3.23884 10.8434 3.02472 10.8781 2.81016 10.8693"
            fill="#1D8AF5" />
        <path
            d="M69.671 4.90699C67.7631 4.90699 66.0738 6.02715 65.0257 7.74876V1.53629C65.0089 1.12526 64.8338 0.736659 64.5371 0.451777C64.2403 0.166896 63.8449 0.0078125 63.4335 0.0078125C63.0222 0.0078125 62.6267 0.166896 62.33 0.451777C62.0332 0.736659 61.8581 1.12526 61.8414 1.53629V17.1476C61.8581 17.5587 62.0332 17.9473 62.33 18.2322C62.6267 18.517 63.0222 18.6761 63.4335 18.6761C63.8449 18.6761 64.2403 18.517 64.5371 18.2322C64.8338 17.9473 65.0089 17.5587 65.0257 17.1476V15.9014C66.0738 17.6249 67.7633 18.7453 69.671 18.7453C72.8454 18.7453 75.4206 15.6471 75.4206 11.8253C75.4206 8.00351 72.8454 4.90739 69.671 4.90739V4.90699ZM68.9456 15.7292C67.0879 15.7351 65.5788 13.9796 65.5788 11.8173C65.5788 9.65505 67.0859 7.89953 68.9435 7.89953C70.8012 7.89953 72.3083 9.65301 72.3083 11.8173C72.3083 13.9817 70.8012 15.7351 68.9435 15.7351"
            fill="#1D8AF5" />
        <path
            d="M84.0157 4.56061C82.7971 4.56159 81.5992 4.8764 80.5375 5.4747C79.4759 6.073 78.5862 6.93463 77.9541 7.97658C77.3221 9.01853 76.9691 10.2057 76.929 11.4237C76.889 12.6417 77.1633 13.8495 77.7255 14.9307C78.2877 16.0119 79.1189 16.9301 80.139 17.5969C81.1591 18.2636 82.3337 18.6564 83.5497 18.7374C84.7656 18.8184 85.9819 18.585 87.0815 18.0595C88.181 17.534 89.1267 16.7341 89.8274 15.7371L87.5652 13.4745C87.191 14.2023 86.6019 14.7973 85.8779 15.1786C85.1538 15.56 84.3299 15.7093 83.5181 15.6062C82.7063 15.5031 81.9459 15.1527 81.3401 14.6024C80.7344 14.0522 80.3127 13.3289 80.1323 12.5306H91.0603C91.1882 11.5318 91.1012 10.5171 90.8052 9.55451C90.5093 8.59194 90.0112 7.70367 89.3443 6.94913C88.6773 6.19458 87.857 5.59117 86.938 5.17925C86.0191 4.76734 85.0228 4.55642 84.0157 4.56061ZM84.0157 7.67083C84.8685 7.67163 85.6986 7.94591 86.3839 8.45337C87.0693 8.96082 87.5738 9.6747 87.8234 10.4901H80.2081C80.4579 9.67487 80.9626 8.96117 81.6479 8.45377C82.3332 7.94636 83.163 7.67196 84.0157 7.67083Z"
            fill="#1D8AF5" />
        <path
            d="M102.453 5.47767C102.409 5.44764 102.361 5.41965 102.315 5.3935C102.268 5.36735 102.278 5.36347 102.253 5.36347C101.877 5.16448 101.471 5.02904 101.051 4.96264H100.991C100.897 4.94726 100.802 4.93723 100.706 4.9326C100.679 4.9272 100.652 4.92385 100.624 4.92259C100.506 4.91258 100.384 4.9085 100.257 4.9085C97.8117 4.9085 96.419 5.66603 95.66 6.34348V6.14306C95.6165 5.75091 95.4298 5.38859 95.1358 5.12544C94.8418 4.86229 94.4611 4.7168 94.0665 4.7168C93.6719 4.7168 93.2912 4.86229 92.9972 5.12544C92.7032 5.38859 92.5166 5.75091 92.473 6.14306V17.1547C92.5166 17.5468 92.7032 17.9092 92.9972 18.1723C93.2912 18.4354 93.6719 18.5809 94.0665 18.5809C94.4611 18.5809 94.8418 18.4354 95.1358 18.1723C95.4298 17.9092 95.6165 17.5468 95.66 17.1547V8.76992C96.0434 8.3481 96.511 8.01138 97.0325 7.78148C97.5541 7.55159 98.1181 7.43364 98.6881 7.43524C100.79 7.43524 101.183 8.98238 101.183 9.84002V17.0546C101.175 17.2807 101.213 17.5061 101.294 17.7174C101.375 17.9286 101.498 18.1213 101.655 18.2841C101.812 18.4469 102.001 18.5763 102.209 18.6647C102.417 18.7531 102.641 18.7987 102.868 18.7987C103.094 18.7987 103.318 18.7531 103.526 18.6647C103.734 18.5763 103.923 18.4469 104.08 18.2841C104.237 18.1213 104.36 17.9286 104.441 17.7174C104.522 17.5061 104.56 17.2807 104.552 17.0546V9.9722C104.552 9.9722 104.59 6.80172 102.442 5.48318"
            fill="#1D8AF5" />
        <path
            d="M117.964 4.56073C117.541 4.57739 117.142 4.75809 116.85 5.0645C116.558 5.37092 116.397 5.77894 116.401 6.20206V7.05786C115.355 5.74116 113.88 4.9156 112.247 4.9156C109.072 4.9156 106.497 8.01376 106.497 11.8335C106.497 15.6532 109.066 18.7455 112.247 18.7455C113.866 18.7455 115.332 17.9438 116.375 16.6371C116.388 16.7188 116.397 16.8011 116.401 16.8837V17.1863C116.38 17.6937 116.257 18.1917 116.039 18.6506C115.821 19.1095 115.514 19.52 115.134 19.8577C114.483 20.4383 113.659 20.7872 112.789 20.85C111.919 20.9128 111.052 20.686 110.325 20.205C110.04 20.0199 109.703 19.9318 109.365 19.9539C109.026 19.976 108.703 20.1071 108.445 20.3276C108.261 20.4803 108.114 20.6735 108.017 20.8922C107.919 21.1109 107.873 21.3492 107.883 21.5884C107.893 21.8276 107.958 22.0614 108.073 22.2715C108.187 22.4816 108.349 22.6623 108.545 22.7996C109.582 23.4951 110.783 23.9045 112.029 23.9866C113.274 24.0686 114.519 23.8203 115.637 23.2667C116.756 22.7132 117.709 21.874 118.399 20.8341C119.089 19.7943 119.492 18.5906 119.568 17.3448C119.576 17.2783 119.58 17.2114 119.58 17.1444V6.14383C119.579 5.93349 119.536 5.72544 119.454 5.53173C119.372 5.33801 119.252 5.16247 119.102 5.01525C118.952 4.86803 118.774 4.75206 118.579 4.67405C118.383 4.59603 118.174 4.55752 117.964 4.56073ZM112.974 15.7433C111.115 15.7433 109.607 13.9899 109.607 11.8255C109.607 9.66121 111.114 7.90773 112.974 7.90773C114.834 7.90773 116.335 9.66121 116.335 11.8255C116.335 13.9899 114.828 15.7433 112.974 15.7433Z"
            fill="#1D8AF5" />
        <path
            d="M144.985 5.47716L144.846 5.39299C144.826 5.38351 144.807 5.3728 144.788 5.36092C144.412 5.16223 144.006 5.02681 143.586 4.96009L143.536 4.96213C143.441 4.94709 143.346 4.93706 143.25 4.9321C143.223 4.92692 143.197 4.92357 143.17 4.92209C143.049 4.91208 142.927 4.90799 142.797 4.90799C140.354 4.90799 138.961 5.66553 138.202 6.34298V6.14256C138.16 5.74877 137.974 5.38432 137.68 5.11944C137.386 4.85457 137.004 4.70801 136.608 4.70801C136.212 4.70801 135.83 4.85457 135.535 5.11944C135.241 5.38432 135.055 5.74877 135.013 6.14256V17.1542C135.055 17.548 135.241 17.9124 135.535 18.1773C135.83 18.4422 136.212 18.5887 136.608 18.5887C137.004 18.5887 137.386 18.4422 137.68 18.1773C137.974 17.9124 138.16 17.548 138.202 17.1542V8.76921C138.585 8.34747 139.053 8.01079 139.574 7.7809C140.096 7.55101 140.659 7.43301 141.229 7.43453C143.332 7.43453 143.72 8.98168 143.72 9.83931V17.0539C143.712 17.2805 143.75 17.5065 143.831 17.7183C143.912 17.9301 144.034 18.1234 144.192 18.2867C144.349 18.45 144.538 18.5798 144.747 18.6685C144.955 18.7572 145.18 18.8029 145.407 18.8029C145.633 18.8029 145.858 18.7572 146.067 18.6685C146.275 18.5798 146.464 18.45 146.622 18.2867C146.779 18.1234 146.902 17.9301 146.983 17.7183C147.064 17.5065 147.101 17.2805 147.093 17.0539V9.9717C147.093 9.9717 147.129 6.80121 144.983 5.48268"
            fill="#1D8AF5" />
        <path
            d="M133.145 11.2102C133.068 9.96491 132.664 8.76193 131.974 7.72283C131.283 6.68373 130.331 5.84536 129.212 5.29246C128.094 4.73956 126.849 4.49173 125.604 4.57403C124.359 4.65633 123.158 5.06584 122.122 5.76116C121.925 5.89732 121.762 6.0773 121.646 6.28698C121.53 6.49667 121.464 6.73038 121.453 6.96981C121.443 7.20924 121.488 7.44789 121.585 7.66707C121.682 7.88624 121.828 8.08 122.012 8.23316L122.068 8.28117C122.323 8.49102 122.639 8.61188 122.968 8.62527C123.297 8.63866 123.622 8.54385 123.892 8.35533C124.62 7.8735 125.487 7.64629 126.358 7.7092C127.229 7.7721 128.054 8.12157 128.705 8.70304C129.011 8.97901 129.27 9.30248 129.473 9.66099C128.006 9.65098 123.675 9.8373 122.008 12.192L121.984 12.2241V12.24C121.769 12.539 121.609 12.8744 121.513 13.2301C121.513 13.2301 121.513 13.2301 121.513 13.2421C121.493 13.3163 121.475 13.3964 121.459 13.4746C121.012 15.8134 122.108 17.7632 123.829 18.4707C124.1 18.5761 124.381 18.6547 124.668 18.7052C124.681 18.7063 124.694 18.7063 124.706 18.7052H125.444C126.262 18.6685 127.063 18.4639 127.799 18.104C128.599 17.71 129.333 17.1941 129.975 16.5748V17.1264C130.018 17.5189 130.205 17.8816 130.499 18.1451C130.793 18.4086 131.174 18.5543 131.568 18.5543C131.963 18.5543 132.344 18.4086 132.638 18.1451C132.932 17.8816 133.119 17.5189 133.162 17.1264V11.4124C133.161 11.3454 133.156 11.2785 133.148 11.212L133.145 11.2102ZM129.972 12.5769V14.2403C129.068 15.0965 127.948 15.6898 126.732 15.9564L126.663 15.9785C126.527 16.0093 126.388 16.0281 126.249 16.0346C126.132 16.0317 126.016 16.0203 125.901 16.0005L125.841 15.9885C125.393 15.8914 124.992 15.6437 124.705 15.2869C124.418 14.93 124.261 14.4854 124.262 14.0272C124.262 13.8927 124.274 13.7585 124.3 13.6264C124.319 13.5474 124.345 13.4703 124.378 13.3959C124.465 13.1886 124.614 13.0135 124.805 12.895C126.209 11.9015 129.972 12.2014 129.972 12.2014V12.5769Z"
            fill="#1D8AF5" />
    </g>
    <defs>
        <clipPath id="clip0_11541_5045">
            <rect width="147.094" height="24" fill="#1D8AF5" />
        </clipPath>
    </defs>
</svg>